<?xml version="1.0" encoding="utf-8"?>
<!-- Generator: Adobe Illustrator 27.9.2, SVG Export Plug-In . SVG Version: 6.00 Build 0)  -->
<svg version="1.1" id="Camada_1" xmlns="http://www.w3.org/2000/svg" xmlns:xlink="http://www.w3.org/1999/xlink" x="0px" y="0px"
	 viewBox="0 0 2500 2500" style="enable-background:new 0 0 2500 2500;" xml:space="preserve">
<style type="text/css">
	.st0{fill-rule:evenodd;clip-rule:evenodd;fill:#3174B9;}
	.st1{fill-rule:evenodd;clip-rule:evenodd;fill:#CA3132;}
</style>
<g>
	<path class="st0" d="M1042.4,1319.4c0,0-59.7,34.7,42.5,46.5c123.9,14.2,187.2,12.1,323.7-13.7c0,0,35.9,22.5,86.1,42
		C1188.7,1525.3,802,1386.6,1042.4,1319.4z M1005,1148.2c0,0-67,49.6,35.4,60.2c132.4,13.7,236.9,14.8,417.8-20
		c0,0,25,25.4,64.3,39.2C1152.4,1335.8,740.2,1236.1,1005,1148.2z"/>
	<path class="st1" d="M1320.3,857.9c75.5,86.9-19.8,165-19.8,165S1492,924,1404.1,800.2c-82.1-115.4-145.1-172.8,195.9-370.5
		C1599.9,429.7,1064.7,563.3,1320.3,857.9z"/>
	<path class="st0" d="M1725.1,1446c0,0,44.2,36.4-48.7,64.6c-176.6,53.5-735.3,69.6-890.5,2.1c-55.7-24.3,48.8-57.9,81.7-65
		c34.3-7.4,53.9-6.1,53.9-6.1c-62-43.7-401,85.8-172.1,122.9C1373.4,1665.8,1886.9,1519,1725.1,1446L1725.1,1446z M1071.1,970.9
		c0,0-284.1,67.5-100.6,92c77.5,10.4,231.9,8,375.9-4.1c117.6-9.9,235.7-31,235.7-31s-41.4,17.8-71.5,38.2
		c-288.6,75.9-846,40.6-685.5-37C960.8,963.4,1071.1,970.9,1071.1,970.9L1071.1,970.9z M1580.9,1255.8
		c293.3-152.4,157.7-298.9,63-279.1c-23.2,4.8-33.5,9-33.5,9s8.6-13.5,25.1-19.3c187.3-65.8,331.3,194.2-60.4,297.2
		C1575,1263.5,1579.5,1259.4,1580.9,1255.8z"/>
	<path class="st1" d="M1404.1,110.3c0,0,162.4,162.5-154.1,412.4c-253.8,200.5-57.9,314.8-0.1,445.4
		c-148.2-133.7-256.9-251.4-184-360.9C1173,446.4,1469.6,368.4,1404.1,110.3L1404.1,110.3z"/>
	<path class="st0" d="M1100,1668.9c281.5,18,713.9-10,724.2-143.2c0,0-19.7,50.5-232.7,90.6c-240.3,45.2-536.8,40-712.5,11
		C878.9,1627.2,915,1657,1100,1668.9z"/>
	<path class="st1" d="M1811.2,1907.8h-8.6v-4.8h23.1v4.8h-8.6v24h-6V1907.8z M1857.3,1909h-0.1l-8.5,22.8h-3.9l-8.5-22.8h-0.1v22.8
		h-5.7V1903h8.3l7.8,20.3l7.8-20.3h8.3v28.8h-5.5L1857.3,1909L1857.3,1909L1857.3,1909z M1053.9,2177.9c-26.5,23-54.6,36-79.8,36
		c-35.9,0-55.4-21.6-55.4-56.1c0-37.4,20.9-64.7,104.3-64.7h30.9L1053.9,2177.9L1053.9,2177.9z M1127.1,2260.6v-255.9
		c0-65.4-37.3-108.6-127.2-108.6c-52.5,0-98.5,13-135.8,29.5l10.8,45.3c29.5-10.8,67.5-20.8,104.9-20.8c51.8,0,74.1,20.8,74.1,64
		v32.4H1028c-125.8,0-182.6,48.8-182.6,122.2c0,63.2,37.4,99.2,107.9,99.2c45.3,0,79.1-18.7,110.7-46l5.7,38.8H1127.1z
		 M1371.7,2260.6h-91.4l-110-358h79.8l68.3,220l15.2,66.1c34.4-95.6,58.9-192.7,71.1-286.1h77.6
		C1461.6,2020.5,1424.1,2149.9,1371.7,2260.6z M1722.4,2177.9c-26.6,23-54.7,36-79.8,36c-35.9,0-55.4-21.6-55.4-56.1
		c0-37.4,20.9-64.7,104.3-64.7h30.9V2177.9z M1795.7,2260.6v-255.9c0-65.4-37.4-108.6-127.2-108.6c-52.5,0-98.5,13-135.9,29.5
		l10.8,45.3c29.5-10.8,67.6-20.8,105-20.8c51.7,0,74,20.8,74,64v32.4h-25.9c-125.8,0-182.6,48.8-182.6,122.2
		c0,63.2,37.3,99.2,107.8,99.2c45.3,0,79.1-18.7,110.7-46l5.8,38.8H1795.7z M765,2321.4c-20.9,30.5-54.7,54.7-91.6,68.3l-36.2-42.6
		c28.1-14.4,52.2-37.7,63.4-59.4c9.7-19.3,13.7-44.2,13.7-103.7v-408.7h77.9v403.1C792.3,2257.9,785.9,2290.1,765,2321.4z"/>
</g>
</svg>
